<svg xmlns="http://www.w3.org/2000/svg" xmlns:xlink="http://www.w3.org/1999/xlink" width="500" zoomAndPan="magnify" viewBox="0 0 375 374.999991" height="500" preserveAspectRatio="xMidYMid meet" version="1.0"><defs><clipPath id="fb66969001"><path d="M 12.023438 83.3125 L 363 83.3125 L 363 291.8125 L 12.023438 291.8125 Z M 12.023438 83.3125 " clip-rule="nonzero"/></clipPath></defs><g clip-path="url(#fb66969001)"><path fill="#00bf63" d="M 12.164062 83.3125 L 133.707031 291.683594 L 187.5 198.964844 L 241.503906 291.683594 L 362.835938 83.3125 L 284.496094 83.3125 L 228.179688 180.308594 L 239.609375 200.015625 L 295.929688 103.4375 L 328.121094 103.4375 L 241.503906 251.84375 L 199.140625 179.253906 L 255.039062 83.3125 L 231.753906 83.3125 L 187.5 159.335938 L 143.246094 83.3125 L 120.171875 83.3125 L 176.066406 179.253906 L 133.707031 251.84375 L 47.089844 103.4375 L 76.546875 103.4375 L 132.863281 200.015625 L 144.507812 180.308594 L 87.976562 83.3125 Z M 12.164062 83.3125 " fill-opacity="1" fill-rule="nonzero"/></g></svg>